<svg width="726" height="219" viewBox="0 0 726 219" fill="none" xmlns="http://www.w3.org/2000/svg">
<g clip-path="url(#clip0)">
<path d="M0 54H18V193.77H56.6V216.5H0V54Z" fill="#FF3B00"/>
<path d="M72 54H142.2V75.58H92.32V122H131.43V143.66H92.32V194.48H143V216.48H72V54Z" fill="#FF3B00"/>
<path d="M206.27 54H250.36C258.933 54 265.48 54.4667 270 55.4C274.52 56.3333 279.13 58.7933 283.83 62.78C288.496 66.78 292.143 72.2567 294.77 79.21C297.517 86.6942 298.873 94.6179 298.77 102.59C298.77 122.91 292.193 137.193 279.04 145.44L304.84 216.5H271.27L252.51 152.23H237.1V216.5H206.27V54ZM237.1 80.34V125.92H250.67C262.73 125.92 268.76 118.107 268.76 102.48C268.76 97.08 267.87 92.6533 266.09 89.2C264.31 85.7467 262.236 83.4133 259.87 82.2C257.496 80.9733 254.02 80.36 249.44 80.36L237.1 80.34Z" fill="#FF3B00"/>
<path d="M353.431 54H389.371L435.791 216.5H399.271L391.171 182.93H345.411L337.411 216.5H304.631L353.431 54ZM384.431 155.05L368.001 88.52L352.251 155.08L384.431 155.05Z" fill="#FF3B00"/>
<path d="M554.51 86.17H474.87V122.59H537.81V152.94H474.87V216.5H433.49V54H554.49L554.51 86.17Z" fill="#FF3B00"/>
<path d="M725.541 54V161.6C725.541 181.993 717.678 196.66 701.951 205.6C686.224 214.54 665.741 219.007 640.501 219C613.901 219 592.534 214.713 576.401 206.14C560.268 197.567 552.204 183.603 552.211 164.25V54H618.081V158.42C618.081 166.193 620.211 171.86 624.471 175.42C628.731 178.98 635.544 180.763 644.911 180.77C652.724 180.77 659.121 179.48 664.101 176.9C669.081 174.32 672.064 171.407 673.051 168.16C674.024 164.9 674.511 158.55 674.511 149.11V54H725.541Z" fill="#FF3B00"/>
<path d="M2.25 3.08008H12.47C16.1567 3.08008 18.8833 3.92008 20.65 5.60008C22.41 7.27008 23.28 9.67008 23.28 12.8101C23.28 16.9834 21.55 19.9401 18.09 21.6801L24.53 37.0001H18.43L13.16 22.8501H7.87V37.0001H2.25V3.08008ZM7.87 7.44008V18.5001H12.17C12.9505 18.5668 13.736 18.4587 14.4695 18.1837C15.2029 17.9087 15.8659 17.4736 16.41 16.9101C17.3481 15.7361 17.8278 14.2613 17.76 12.7601C17.76 9.21008 15.92 7.44008 12.22 7.44008H7.87Z" fill="black"/>
<path d="M47.1809 25.24H33.0009C33.0009 28.6333 33.4609 30.8933 34.3809 32.02C34.7845 32.5542 35.3078 32.9864 35.9087 33.2816C36.5096 33.5769 37.1714 33.727 37.8409 33.72C40.1509 33.72 41.6209 32.16 42.2309 29.04L46.9809 29.67C45.7343 35.0033 42.6343 37.67 37.6809 37.67C36.3019 37.7196 34.9299 37.4513 33.671 36.8861C32.4122 36.3208 31.3002 35.4736 30.4209 34.41C28.6143 32.2367 27.7109 29.0533 27.7109 24.86C27.7109 20.5533 28.6209 17.22 30.4409 14.86C31.2831 13.7236 32.3879 12.8081 33.6609 12.1916C34.9339 11.5751 36.3372 11.2761 37.7509 11.32C39.703 11.2571 41.6149 11.8838 43.1509 13.09C44.626 14.287 45.7006 15.9058 46.2309 17.73C46.8952 20.177 47.215 22.7047 47.1809 25.24ZM41.8809 21.73C41.8809 17.31 40.4409 15.09 37.5609 15.09C34.8609 15.09 33.3709 17.31 33.1109 21.73H41.8809ZM33.7509 7L41.7509 0L44.4309 3.38L35.6409 8.9L33.7509 7Z" fill="black"/>
<path d="M66.5993 17.7798L62.5993 18.8698C61.8493 16.3498 60.4393 15.0898 58.3493 15.0898C57.9159 15.0704 57.4832 15.1412 57.0787 15.2979C56.6741 15.4545 56.3066 15.6936 55.9993 15.9998C55.7097 16.2887 55.4822 16.6338 55.3309 17.0139C55.1796 17.3939 55.1076 17.8009 55.1193 18.2098C55.0852 18.6167 55.1471 19.0259 55.3 19.4045C55.4528 19.7831 55.6923 20.1206 55.9993 20.3898C57.2795 21.1625 58.6635 21.7484 60.1093 22.1298C62.1943 22.7223 64.1325 23.7442 65.7993 25.1298C66.3963 25.7354 66.8596 26.4595 67.1593 27.2553C67.459 28.0511 67.5885 28.9009 67.5393 29.7498C67.5428 30.8109 67.3177 31.8603 66.8794 32.8266C66.4411 33.7929 65.7999 34.6535 64.9993 35.3498C63.1394 36.9538 60.732 37.7777 58.2793 37.6498C52.946 37.6498 49.946 35.2132 49.2793 30.3398L53.6793 29.5198C54.2526 32.3998 55.8526 33.8398 58.4793 33.8398C59.0207 33.8812 59.565 33.814 60.0801 33.6423C60.5953 33.4706 61.071 33.1978 61.4793 32.8398C61.7968 32.5344 62.0491 32.1679 62.221 31.7622C62.3928 31.3566 62.4807 30.9204 62.4793 30.4798C62.4635 29.7975 62.2286 29.1384 61.8093 28.5998C61.3593 27.9798 60.1093 27.3398 58.0493 26.6698C56.5144 26.2137 55.0221 25.6248 53.5893 24.9098C52.5712 24.3473 51.7192 23.5264 51.1193 22.5298C50.4542 21.4772 50.107 20.2549 50.1193 19.0098C50.105 17.989 50.3049 16.9765 50.7063 16.0377C51.1076 15.099 51.7014 14.2548 52.4493 13.5598C53.2509 12.8059 54.1937 12.2181 55.2234 11.8302C56.2532 11.4423 57.3496 11.2621 58.4493 11.2998C62.676 11.3065 65.3926 13.4665 66.5993 17.7798Z" fill="black"/>
<path d="M89.701 25.2397H75.511C75.511 28.6297 75.961 30.8897 76.881 32.0197C77.2845 32.554 77.8078 32.9861 78.4087 33.2814C79.0097 33.5766 79.6715 33.7268 80.341 33.7197C82.661 33.7197 84.1243 32.1597 84.731 29.0397L89.481 29.6697C88.241 35.0031 85.141 37.6697 80.181 37.6697C78.8019 37.7193 77.4299 37.4511 76.1711 36.8858C74.9122 36.3205 73.8002 35.4733 72.921 34.4097C71.1076 32.2364 70.2043 29.0531 70.211 24.8597C70.211 20.5531 71.121 17.2197 72.941 14.8597C73.7843 13.7246 74.8893 12.81 76.162 12.1937C77.4347 11.5773 78.8375 11.2775 80.251 11.3197C82.203 11.2568 84.1149 11.8835 85.651 13.0897C87.1261 14.2868 88.2006 15.9056 88.731 17.7297C89.402 20.1758 89.7285 22.7035 89.701 25.2397ZM84.411 21.7297C84.411 17.3097 82.971 15.0897 80.081 15.0897C77.381 15.0897 75.891 17.3097 75.631 21.7297H84.411Z" fill="black"/>
<path d="M98.6795 19.0001L93.6795 18.3801C93.8009 17.3412 94.1396 16.3394 94.6737 15.44C95.2078 14.5407 95.9253 13.7638 96.7795 13.1601C98.6494 11.874 100.881 11.2189 103.15 11.2901C105.044 11.2 106.923 11.6732 108.55 12.6501C109.758 13.3811 110.66 14.525 111.09 15.8701C111.5 17.7207 111.675 19.6157 111.61 21.5101V30.0701C111.521 32.3928 111.672 34.7184 112.06 37.0101H107.16C106.908 35.6317 106.801 34.2308 106.84 32.8301C105.266 36.0301 102.933 37.6301 99.8395 37.6301C98.9011 37.6734 97.9637 37.5225 97.0862 37.1869C96.2087 36.8514 95.4098 36.3385 94.7395 35.6801C94.0764 34.9709 93.5636 34.1349 93.2319 33.2224C92.9003 32.3098 92.7566 31.3396 92.8095 30.3701C92.7504 29.1446 92.974 27.9218 93.463 26.7964C93.952 25.671 94.6933 24.6732 95.6295 23.8801C97.5095 22.2935 100.766 21.4968 105.4 21.4901H106.49V20.4901C106.576 19.0895 106.297 17.6905 105.68 16.4301C105.372 15.9591 104.94 15.582 104.432 15.3403C103.924 15.0986 103.359 15.0017 102.8 15.0601C100.48 15.0901 99.1295 16.4001 98.6795 19.0001ZM106.44 24.7701C105.78 24.7101 105.28 24.6701 104.93 24.6701C100.43 24.6701 98.1795 26.4368 98.1795 29.9701C98.1795 32.5435 99.2962 33.8268 101.53 33.8201C102.235 33.7976 102.923 33.5968 103.53 33.2366C104.136 32.8764 104.642 32.3685 105 31.7601C106.064 30.0355 106.567 28.0229 106.44 26.0001V24.7701Z" fill="black"/>
<path d="M117.26 11.9102H122.43V27.9102C122.324 29.4184 122.511 30.9328 122.98 32.3702C123.228 32.7752 123.589 33.0983 124.02 33.2992C124.45 33.5002 124.93 33.57 125.4 33.5002C126.081 33.5468 126.76 33.379 127.341 33.0204C127.922 32.6617 128.376 32.1301 128.64 31.5002C129.26 30.1502 129.57 27.6702 129.57 24.0402V11.9102H134.74V37.0002H130V33.2502C128.666 36.1768 126.543 37.6435 123.63 37.6502C122.34 37.7016 121.063 37.3711 119.96 36.7002C119.015 36.0525 118.312 35.11 117.96 34.0202C117.451 32.063 117.242 30.04 117.34 28.0202L117.26 11.9102Z" fill="black"/>
<path d="M156.999 3.08008H163.299L172.409 37.0801H166.719L164.589 28.5701H154.639L152.479 37.0001H147.119L156.999 3.08008ZM163.489 24.0801L159.589 8.53008L155.689 24.1001L163.489 24.0801Z" fill="black"/>
<path d="M175.551 11.9097H180.101V17.5297C181.494 13.4363 183.587 11.3897 186.381 11.3897C186.715 11.3891 187.05 11.4125 187.381 11.4597V16.8597C187.032 16.8165 186.682 16.7931 186.331 16.7897C182.617 16.7897 180.764 19.2763 180.771 24.2497V36.9997H175.601L175.551 11.9097Z" fill="black"/>
<path d="M192.431 5.36992L197.111 4.91992V11.9199H201.911V16.0999H197.111V27.1699C197.084 28.4649 197.131 29.7603 197.251 31.0499C197.339 31.6689 197.661 32.2306 198.151 32.6199C198.892 33.0874 199.767 33.2982 200.641 33.2199C201.34 33.2113 202.039 33.1545 202.731 33.0499V37.1999C201.457 37.4858 200.156 37.6367 198.851 37.6499C197.285 37.7504 195.728 37.355 194.401 36.5199C193.37 35.7865 192.655 34.6895 192.401 33.4499C192.069 31.4949 191.928 29.5122 191.981 27.5299V16.0899H188.721V11.9099H192.131L192.431 5.36992Z" fill="black"/>
<path d="M210.71 8.53H205.26V3H210.71V8.53ZM205.39 11.91H210.56V37H205.39V11.91Z" fill="black"/>
<path d="M231.8 17.7797L227.74 18.8697C227 16.3497 225.583 15.0897 223.49 15.0897C223.06 15.0717 222.632 15.1424 222.231 15.2972C221.83 15.452 221.466 15.6878 221.16 15.9897C220.873 16.2807 220.647 16.6261 220.496 17.0057C220.345 17.3852 220.271 17.7912 220.28 18.1997C220.244 18.6101 220.307 19.023 220.464 19.404C220.62 19.785 220.866 20.123 221.18 20.3897C222.455 21.1649 223.836 21.751 225.28 22.1297C227.366 22.72 229.304 23.7421 230.97 25.1297C231.573 25.7314 232.041 26.4546 232.342 27.2512C232.644 28.0478 232.773 28.8995 232.72 29.7497C232.735 30.8121 232.521 31.8654 232.091 32.8371C231.661 33.8089 231.026 34.6762 230.23 35.3797C228.37 36.9836 225.962 37.8076 223.51 37.6797C218.176 37.6797 215.176 35.243 214.51 30.3697L218.91 29.5497C219.476 32.4297 221.076 33.8697 223.71 33.8697C224.252 33.9156 224.797 33.8507 225.313 33.6787C225.829 33.5068 226.304 33.2315 226.71 32.8697C227.029 32.5657 227.283 32.1994 227.455 31.7935C227.627 31.3875 227.714 30.9506 227.71 30.5097C227.694 29.8274 227.459 29.1682 227.04 28.6297C226.59 28.0097 225.34 27.3697 223.29 26.6997C221.752 26.2432 220.256 25.6544 218.82 24.9397C217.802 24.3771 216.95 23.5563 216.35 22.5597C215.685 21.507 215.337 20.2848 215.35 19.0397C215.335 18.0178 215.536 17.0043 215.939 16.0652C216.342 15.1261 216.939 14.2826 217.69 13.5897C218.49 12.834 219.433 12.2449 220.463 11.857C221.493 11.469 222.59 11.2897 223.69 11.3297C227.896 11.3164 230.6 13.4664 231.8 17.7797Z" fill="black"/>
<path d="M238 5.36992L242.68 4.91992V11.9199H247.48V16.0999H242.68V27.1699C242.65 28.4651 242.7 29.7609 242.83 31.0499C242.915 31.6678 243.234 32.2296 243.72 32.6199C244.462 33.0874 245.337 33.2982 246.21 33.2199C246.91 33.2113 247.608 33.1545 248.3 33.0499V37.1999C247.026 37.4858 245.726 37.6367 244.42 37.6499C242.865 37.7441 241.319 37.3489 240 36.5199C238.969 35.7865 238.254 34.6895 238 33.4499C237.668 31.4949 237.528 29.5122 237.58 27.5299V16.0899H234.32V11.9099H237.73L238 5.36992Z" fill="black"/>
<path d="M256.29 8.53H250.84V3H256.29V8.53ZM251 11.91H256.17V37H251V11.91Z" fill="black"/>
<path d="M277.64 11.7403H280.46C280.39 13.1303 280.36 15.0803 280.36 17.5803V45.5803H275.19V33.8203C274.661 34.9245 273.827 35.8546 272.787 36.5012C271.747 37.1478 270.544 37.484 269.32 37.4703C268.152 37.4658 267.002 37.1766 265.97 36.6278C264.939 36.0789 264.057 35.2869 263.4 34.3203C261.8 32.2137 261 29.0803 261 24.9203C261 20.3603 261.83 16.977 263.49 14.7703C264.204 13.7387 265.159 12.8976 266.273 12.3206C267.387 11.7435 268.626 11.4482 269.88 11.4603C272.65 11.4603 274.69 12.8603 276.02 15.6403C276.676 14.3918 277.219 13.0865 277.64 11.7403ZM275.19 22.2703C275.297 20.454 274.85 18.6479 273.91 17.0903C273.59 16.5511 273.139 16.1016 272.599 15.7834C272.059 15.4652 271.447 15.2887 270.82 15.2703C270.135 15.2601 269.463 15.4544 268.889 15.8286C268.316 16.2027 267.867 16.7395 267.6 17.3703C266.887 18.7703 266.53 21.1037 266.53 24.3703C266.53 30.5103 267.953 33.5837 270.8 33.5903C271.436 33.5431 272.05 33.3348 272.584 32.9849C273.117 32.635 273.553 32.1551 273.85 31.5903C274.74 30.2703 275.19 28.2503 275.19 25.5903V22.2703Z" fill="black"/>
<path d="M286.381 11.9102H291.551V27.9102C291.445 29.4184 291.631 30.9328 292.101 32.3702C292.349 32.7752 292.71 33.0983 293.141 33.2992C293.571 33.5002 294.051 33.57 294.521 33.5002C295.202 33.5468 295.881 33.379 296.462 33.0204C297.043 32.6617 297.497 32.1301 297.761 31.5002C298.381 30.1502 298.691 27.6702 298.691 24.0402V11.9102H303.861V37.0002H299.091V33.2502C297.757 36.1768 295.631 37.6435 292.711 37.6502C291.423 37.7032 290.149 37.3725 289.051 36.7002C288.082 36.0579 287.359 35.1061 287.001 34.0002C286.497 32.042 286.288 30.0198 286.381 28.0002V11.9102Z" fill="black"/>
<path d="M328.25 25.2404H314.06C314.06 28.6304 314.51 30.8904 315.43 32.0204C315.833 32.5547 316.357 32.9868 316.958 33.282C317.558 33.5773 318.22 33.7274 318.89 33.7204C321.21 33.7204 322.673 32.1604 323.28 29.0404L328.03 29.6704C326.79 35.0038 323.69 37.6704 318.73 37.6704C317.351 37.72 315.979 37.4517 314.72 36.8865C313.461 36.3212 312.349 35.474 311.47 34.4104C309.656 32.2371 308.753 29.0538 308.76 24.8604C308.76 20.5538 309.67 17.2204 311.49 14.8604C312.335 13.7251 313.442 12.8106 314.716 12.1943C315.991 11.578 317.395 11.2783 318.81 11.3204C320.758 11.2599 322.666 11.8864 324.2 13.0904C325.675 14.2895 326.752 15.9071 327.29 17.7304C327.957 20.1771 328.28 22.7047 328.25 25.2404ZM323 21.7304C323 17.3104 321.56 15.0904 318.67 15.0904C315.97 15.0904 314.49 17.3104 314.22 21.7304H323Z" fill="black"/>
<path d="M342.26 3.08008H361.1V7.58008H347.88V17.7301H358.47V22.2301H347.88V37.0001H342.26V3.08008Z" fill="black"/>
<path d="M382 25.24H367.8C367.8 28.6333 368.26 30.8933 369.18 32.02C369.583 32.5542 370.107 32.9864 370.708 33.2816C371.308 33.5769 371.97 33.727 372.64 33.72C374.96 33.72 376.423 32.16 377.03 29.04L381.78 29.67C380.54 35.0033 377.44 37.67 372.48 37.67C371.101 37.7196 369.729 37.4513 368.47 36.8861C367.211 36.3208 366.099 35.4736 365.22 34.41C363.413 32.2367 362.51 29.0533 362.51 24.86C362.51 20.5533 363.42 17.22 365.24 14.86C366.083 13.7249 367.188 12.8103 368.461 12.1939C369.734 11.5776 371.136 11.2778 372.55 11.32C374.502 11.2571 376.414 11.8838 377.95 13.09C379.412 14.2886 380.476 15.9033 381 17.72C381.682 20.1678 382.018 22.699 382 25.24ZM376.71 21.73C376.71 17.31 375.26 15.09 372.38 15.09C369.68 15.09 368.19 17.31 367.93 21.73H376.71ZM368.56 7L376.56 0L379.24 3.38L370.45 8.9L368.56 7Z" fill="black"/>
<path d="M399.351 3.08008H404.521V37.0001H399.751V33.2201C399.307 34.5023 398.463 35.6077 397.343 36.3731C396.223 37.1385 394.886 37.5231 393.531 37.4701C392.245 37.5281 390.969 37.2267 389.846 36.5996C388.722 35.9725 387.796 35.0446 387.171 33.9201C385.64 31.0565 384.908 27.8339 385.051 24.5901C385.051 20.4701 385.831 17.2501 387.391 14.9501C388.04 13.8802 388.957 12.9983 390.051 12.3914C391.146 11.7846 392.38 11.4739 393.631 11.4901C394.809 11.4012 395.987 11.672 397.008 12.2665C398.029 12.8611 398.846 13.7515 399.351 14.8201V3.08008ZM399.351 22.2501C399.351 19.6601 398.861 17.8601 397.891 16.8201C397.525 16.3682 397.07 15.9971 396.553 15.7303C396.037 15.4635 395.471 15.3068 394.891 15.2701C392.031 15.2701 390.597 18.2167 390.591 24.1101C390.591 30.4034 392.041 33.5501 394.941 33.5501C395.534 33.5348 396.116 33.3878 396.645 33.1197C397.175 32.8517 397.638 32.4692 398.001 32.0001C398.907 30.9601 399.364 29.1467 399.371 26.5601L399.351 22.2501Z" fill="black"/>
<path d="M428.84 25.24H414.64C414.64 28.6333 415.1 30.8933 416.02 32.02C416.423 32.5542 416.946 32.9864 417.547 33.2816C418.148 33.5769 418.81 33.727 419.48 33.72C421.79 33.72 423.26 32.16 423.87 29.04L428.62 29.67C427.38 35.0033 424.28 37.67 419.32 37.67C417.941 37.7196 416.569 37.4513 415.31 36.8861C414.051 36.3208 412.939 35.4736 412.06 34.41C410.253 32.2367 409.35 29.0533 409.35 24.86C409.35 20.5533 410.26 17.22 412.08 14.86C412.923 13.7249 414.028 12.8103 415.301 12.1939C416.573 11.5776 417.976 11.2778 419.39 11.32C421.342 11.2571 423.254 11.8838 424.79 13.09C426.265 14.287 427.339 15.9058 427.87 17.73C428.541 20.176 428.867 22.7037 428.84 25.24ZM423.55 21.73C423.55 17.31 422.1 15.09 419.22 15.09C416.52 15.09 415.03 17.31 414.77 21.73H423.55ZM415.41 7L423.41 0L426.09 3.38L417.3 8.9L415.41 7Z" fill="black"/>
<path d="M433.141 11.9096H437.701V17.5296C439.087 13.4363 441.181 11.3896 443.981 11.3896C444.299 11.3916 444.616 11.415 444.931 11.4596V16.8596C444.582 16.8165 444.232 16.7931 443.881 16.7896C440.174 16.7896 438.321 19.2763 438.321 24.2496V36.9996H433.141V11.9096Z" fill="black"/>
<path d="M452.47 19.0001L447.47 18.3801C447.592 17.3423 447.929 16.3415 448.462 15.4424C448.994 14.5432 449.709 13.7657 450.56 13.1601C452.43 11.874 454.662 11.2189 456.93 11.2901C458.825 11.2 460.704 11.6732 462.33 12.6501C463.544 13.3748 464.448 14.5211 464.87 15.8701C465.285 17.7201 465.463 19.6153 465.4 21.5101V30.0701C465.316 32.3924 465.463 34.7172 465.84 37.0101H461C460.739 35.6329 460.629 34.2313 460.67 32.8301C459.097 36.0301 456.747 37.6301 453.62 37.6301C452.682 37.6721 451.745 37.5207 450.868 37.1853C449.99 36.8498 449.191 36.3375 448.52 35.6801C447.861 34.9688 447.351 34.1322 447.021 33.22C446.691 32.3079 446.548 31.3387 446.6 30.3701C446.541 29.1446 446.765 27.9218 447.254 26.7964C447.743 25.671 448.484 24.6732 449.42 23.8801C451.294 22.2935 454.547 21.4968 459.18 21.4901H460.27V20.4901C460.359 19.0904 460.083 17.6915 459.47 16.4301C459.16 15.9591 458.727 15.5822 458.217 15.3406C457.707 15.099 457.141 15.002 456.58 15.0601C454.27 15.0901 452.91 16.4001 452.47 19.0001ZM460.22 24.7701C459.56 24.7101 459.06 24.6701 458.71 24.6701C454.237 24.6835 452 26.4601 452 30.0001C452 32.5701 453.11 33.8501 455.35 33.8501C456.05 33.8179 456.731 33.6107 457.33 33.2473C457.93 32.8839 458.428 32.376 458.78 31.7701C459.842 30.0406 460.345 28.0258 460.22 26.0001V24.7701Z" fill="black"/>
<path d="M472.14 5.36992L476.81 4.91992V11.9199H481.61V16.0999H476.81V27.1699C476.78 28.4651 476.83 29.7609 476.96 31.0499C477.049 31.6689 477.371 32.2306 477.86 32.6199C478.599 33.0853 479.47 33.296 480.34 33.2199C481.04 33.2117 481.738 33.1549 482.43 33.0499V37.1999C481.156 37.4869 479.856 37.6377 478.55 37.6499C476.985 37.7491 475.428 37.3538 474.1 36.5199C473.069 35.7865 472.354 34.6895 472.1 33.4499C471.758 31.496 471.614 29.5127 471.67 27.5299V16.0899H468.42V11.9099H471.82L472.14 5.36992Z" fill="black"/>
<path d="M503.59 25.2397H489.39C489.39 28.6331 489.85 30.8931 490.77 32.0197C491.173 32.554 491.696 32.9861 492.297 33.2814C492.898 33.5766 493.56 33.7268 494.23 33.7197C496.55 33.7197 498.013 32.1597 498.62 29.0397L503.37 29.6697C502.13 35.0031 499.03 37.6697 494.07 37.6697C492.691 37.7193 491.319 37.4511 490.06 36.8858C488.801 36.3205 487.689 35.4733 486.81 34.4097C485.003 32.2364 484.1 29.0531 484.1 24.8597C484.1 20.5531 485.01 17.2197 486.83 14.8597C487.673 13.7246 488.778 12.81 490.051 12.1937C491.323 11.5773 492.726 11.2775 494.14 11.3197C496.092 11.2568 498.004 11.8835 499.54 13.0897C501.015 14.2868 502.089 15.9056 502.62 17.7297C503.291 20.1758 503.617 22.7035 503.59 25.2397ZM498.3 21.7297C498.3 17.3097 496.85 15.0897 493.97 15.0897C491.27 15.0897 489.78 17.3097 489.52 21.7297H498.3Z" fill="black"/>
<path d="M507.72 11.9102H512.89V27.9102C512.79 29.4182 512.976 30.9317 513.44 32.3702C513.689 32.7743 514.051 33.0966 514.481 33.2974C514.911 33.4983 515.391 33.5687 515.86 33.5002C516.543 33.546 517.222 33.3779 517.805 33.0195C518.387 32.661 518.844 32.13 519.11 31.5002C519.72 30.1502 520.03 27.6702 520.03 24.0402V11.9102H525.2V37.0002H520.43V33.2502C519.097 36.1768 516.97 37.6435 514.05 37.6502C512.763 37.7032 511.489 37.3725 510.39 36.7002C509.427 36.0522 508.706 35.1024 508.34 34.0002C507.837 32.042 507.628 30.0198 507.72 28.0002V11.9102Z" fill="black"/>
<path d="M531.34 11.9097H535.9V17.5297C537.287 13.4363 539.38 11.3897 542.18 11.3897C542.514 11.3891 542.849 11.4125 543.18 11.4597V16.8597C542.848 16.8183 542.514 16.795 542.18 16.7897C538.466 16.7897 536.613 19.2763 536.62 24.2497V36.9997H531.44L531.34 11.9097Z" fill="black"/>
<path d="M554.67 3.08031H560.17V24.1503C560.12 25.895 560.244 27.6402 560.54 29.3603C560.762 30.4253 561.367 31.3718 562.24 32.0203C563.303 32.7283 564.564 33.0786 565.84 33.0203C567.006 33.0857 568.165 32.8038 569.17 32.2103C569.974 31.6581 570.569 30.8516 570.86 29.9203C571.287 28.0014 571.455 26.0339 571.36 24.0703V3.07031H576.36V23.7703C576.436 26.3425 576.201 28.9145 575.66 31.4303C575.151 33.2693 573.979 34.8545 572.37 35.8803C570.302 37.1551 567.896 37.7723 565.47 37.6503C563.47 37.6969 561.483 37.3186 559.64 36.5403C558.033 35.8259 556.725 34.5743 555.94 33.0003C555.087 31.347 554.663 28.4103 554.67 24.1903V3.08031Z" fill="black"/>
<path d="M583.39 5.36992L588.07 4.91992V11.9199H592.87V16.0999H588.07V27.1699C588.039 28.4651 588.089 29.7609 588.22 31.0499C588.305 31.6678 588.623 32.2296 589.11 32.6199C589.851 33.0874 590.726 33.2982 591.6 33.2199C592.299 33.2113 592.998 33.1545 593.69 33.0499V37.1999C592.416 37.4858 591.115 37.6367 589.81 37.6499C588.244 37.7504 586.687 37.355 585.36 36.5199C584.329 35.7865 583.614 34.6895 583.36 33.4499C583.028 31.4949 582.887 29.5122 582.94 27.5299V16.0899H579.68V11.9099H583.09L583.39 5.36992Z" fill="black"/>
<path d="M615.169 24.2196C615.169 33.173 611.856 37.6496 605.229 37.6496C603.853 37.7168 602.481 37.4574 601.224 36.8925C599.967 36.3277 598.862 35.4734 597.999 34.3996C596.252 32.2396 595.376 28.9296 595.369 24.4696C595.369 15.703 598.702 11.3163 605.369 11.3096C606.731 11.252 608.088 11.512 609.333 12.0691C610.577 12.6262 611.675 13.4652 612.539 14.5196C614.292 16.6596 615.169 19.893 615.169 24.2196ZM609.649 24.4796C609.649 20.9463 609.256 18.5263 608.469 17.2196C608.178 16.6229 607.726 16.1194 607.164 15.766C606.603 15.4126 605.953 15.2234 605.289 15.2196C602.376 15.2196 600.919 18.2996 600.919 24.4596C600.784 26.8362 601.124 29.2158 601.919 31.4596C602.183 32.1301 602.643 32.7055 603.239 33.111C603.835 33.5165 604.539 33.7334 605.259 33.7334C605.98 33.7334 606.684 33.5165 607.279 33.111C607.875 32.7055 608.335 32.1301 608.599 31.4596C609.414 29.2269 609.771 26.8532 609.649 24.4796Z" fill="black"/>
<path d="M620.07 11.9097H624.85V15.9997C626.15 12.973 628.217 11.4563 631.05 11.4497C632.27 11.4359 633.473 11.7336 634.546 12.3145C635.619 12.8955 636.525 13.7405 637.18 14.7697C638.74 16.9797 639.52 20.1397 639.52 24.2297C639.616 27.4755 638.886 30.6924 637.4 33.5797C636.793 34.7887 635.848 35.7957 634.68 36.479C633.513 37.1623 632.172 37.4925 630.82 37.4297C629.708 37.4649 628.607 37.2061 627.627 36.6793C626.647 36.1526 625.824 35.3766 625.24 34.4297V45.5297H620.07V11.9097ZM625.24 26.5197C625.205 27.7831 625.326 29.046 625.6 30.2797C625.842 31.1821 626.355 31.9884 627.07 32.5897C627.757 33.224 628.655 33.5804 629.59 33.5897C632.53 33.5897 634 30.493 634 24.2997C634 18.2997 632.564 15.2997 629.69 15.2997C629.048 15.3085 628.42 15.4825 627.864 15.8047C627.309 16.127 626.846 16.5867 626.52 17.1397C625.574 18.7171 625.128 20.5438 625.24 22.3797V26.5197Z" fill="black"/>
<path d="M649.69 8.53H644.24V3H649.69V8.53ZM644.37 11.91H649.54V37H644.37V11.91Z" fill="black"/>
<path d="M670.999 11.7403H673.819C673.749 13.1303 673.719 15.0803 673.719 17.5803V45.5803H668.549V33.8203C668.019 34.9237 667.185 35.8531 666.145 36.4996C665.106 37.1461 663.903 37.4828 662.679 37.4703C661.51 37.4675 660.36 37.1791 659.328 36.6301C658.296 36.081 657.414 35.2881 656.759 34.3203C655.172 32.2137 654.376 29.0803 654.369 24.9203C654.369 20.3603 655.199 16.977 656.859 14.7703C657.573 13.7387 658.529 12.8976 659.642 12.3206C660.756 11.7435 661.995 11.4482 663.249 11.4603C666.009 11.4603 668.059 12.8603 669.389 15.6403C670.042 14.3915 670.581 13.0861 670.999 11.7403ZM668.549 22.2703C668.656 20.454 668.21 18.6479 667.269 17.0903C666.949 16.5511 666.498 16.1016 665.958 15.7834C665.418 15.4652 664.806 15.2887 664.179 15.2703C663.494 15.2587 662.821 15.4525 662.247 15.8268C661.673 16.2011 661.225 16.7387 660.959 17.3703C660.246 18.7703 659.889 21.1037 659.889 24.3703C659.889 30.5103 661.312 33.5837 664.159 33.5903C664.786 33.5341 665.39 33.3216 665.914 32.9722C666.438 32.6228 666.866 32.1477 667.159 31.5903C668.049 30.2703 668.499 28.2503 668.499 25.5903L668.549 22.2703Z" fill="black"/>
<path d="M679.779 11.9102H684.999V27.9102C684.893 29.4184 685.08 30.9328 685.549 32.3702C685.797 32.7752 686.159 33.0983 686.589 33.2992C687.02 33.5002 687.499 33.57 687.969 33.5002C688.651 33.5468 689.329 33.379 689.91 33.0204C690.491 32.6617 690.946 32.1301 691.209 31.5002C691.829 30.1502 692.139 27.6702 692.139 24.0402V11.9102H697.309V37.0002H692.529V33.2502C691.196 36.1768 689.073 37.6435 686.159 37.6502C684.869 37.7028 683.592 37.3722 682.489 36.7002C681.545 36.0525 680.841 35.11 680.489 34.0202C679.98 32.063 679.771 30.04 679.869 28.0202L679.779 11.9102Z" fill="black"/>
<path d="M721.65 25.2397H707.45C707.45 28.6331 707.91 30.8931 708.83 32.0197C709.234 32.554 709.757 32.9861 710.358 33.2814C710.959 33.5766 711.621 33.7268 712.29 33.7197C714.61 33.7197 716.074 32.1597 716.68 29.0397L721.43 29.6697C720.19 35.0031 717.09 37.6697 712.13 37.6697C710.751 37.7193 709.379 37.4511 708.12 36.8858C706.861 36.3205 705.749 35.4733 704.87 34.4097C703.057 32.2364 702.154 29.0531 702.16 24.8597C702.16 20.5531 703.07 17.2197 704.89 14.8597C705.734 13.7246 706.839 12.81 708.111 12.1937C709.384 11.5773 710.787 11.2775 712.2 11.3197C714.152 11.2568 716.064 11.8835 717.6 13.0897C719.075 14.2868 720.15 15.9056 720.68 17.7297C721.351 20.1758 721.678 22.7035 721.65 25.2397ZM716.36 21.7297C716.36 17.3097 714.91 15.0897 712.03 15.0897C709.33 15.0897 707.84 17.3097 707.58 21.7297H716.36Z" fill="black"/>
</g>
<defs>
<clipPath id="clip0">
<rect width="725.54" height="219" fill="white"/>
</clipPath>
</defs>
</svg>
