<svg width="30" height="30" viewBox="0 0 30 30" fill="none" xmlns="http://www.w3.org/2000/svg">
<path fill-rule="evenodd" clip-rule="evenodd" d="M24.9474 5.01109C22.3162 2.37677 18.8169 0.925373 15.0889 0.923828C7.40705 0.923828 1.15515 7.17556 1.15206 14.8595C1.15103 17.3158 1.7927 19.7135 3.01235 21.827L1.03516 29.0488L8.42329 27.1108C10.459 28.2212 12.7509 28.8064 15.0832 28.8071H15.0891C22.7701 28.8071 29.0227 22.5549 29.0256 14.8706C29.0271 11.1466 27.5788 7.64523 24.9474 5.01109ZM15.0889 26.4535H15.0841C13.0056 26.4526 10.9671 25.894 9.18839 24.8388L8.76558 24.5877L4.38135 25.7378L5.55157 21.4633L5.27605 21.025C4.11648 19.1807 3.50416 17.049 3.50519 14.8603C3.5076 8.47367 8.70413 3.27765 15.0935 3.27765C18.1876 3.27868 21.096 4.48511 23.283 6.67466C25.47 8.8642 26.6736 11.7745 26.6726 14.8698C26.6699 21.2569 21.4737 26.4535 15.0889 26.4535ZM21.4428 17.7779C21.0946 17.6035 19.3825 16.7613 19.0632 16.6449C18.7443 16.5287 18.5118 16.4709 18.2799 16.8193C18.0477 17.1678 17.3804 17.9523 17.1772 18.1845C16.9739 18.417 16.771 18.4462 16.4227 18.2718C16.0744 18.0975 14.9524 17.7296 13.6222 16.5433C12.5871 15.6199 11.8883 14.4796 11.685 14.1311C11.4821 13.7823 11.6833 13.612 11.8378 13.4204C12.2148 12.9523 12.5923 12.4615 12.7083 12.2293C12.8245 11.9968 12.7663 11.7934 12.6791 11.6192C12.5923 11.445 11.8958 9.73091 11.6057 9.03345C11.3228 8.35471 11.036 8.44637 10.8221 8.43573C10.6192 8.4256 10.3869 8.42354 10.1547 8.42354C9.92258 8.42354 9.54527 8.51057 9.22598 8.85939C8.90686 9.20803 8.00735 10.0504 8.00735 11.7644C8.00735 13.4785 9.25516 15.1343 9.42923 15.3667C9.60329 15.5992 11.8848 19.1165 15.378 20.6247C16.2088 20.9838 16.8574 21.1979 17.3632 21.3584C18.1975 21.6234 18.9564 21.586 19.5566 21.4964C20.2257 21.3963 21.6167 20.6539 21.9071 19.8406C22.1972 19.0271 22.1972 18.3299 22.11 18.1845C22.0232 18.0393 21.7909 17.9523 21.4428 17.7779Z" fill="black"/>
</svg>
