<svg width="126" height="29" viewBox="0 0 126 29" fill="none" xmlns="http://www.w3.org/2000/svg">
<g clip-path="url(#clip0)">
<path d="M0 0H3.12595V24.5631H9.82936V28.5605H0V0Z" fill="#FF3B00"/>
<path d="M12.5039 0H24.6951V3.78651H16.0328V11.9537H22.8247V15.7543H16.0328V24.6896H24.834V28.557H12.5039V0Z" fill="#FF3B00"/>
<path d="M35.8223 0H43.4791C44.968 0 46.1049 0.0802772 46.8898 0.240832C47.6748 0.401386 48.4754 0.833828 49.2916 1.53816C50.102 2.24132 50.7353 3.20347 51.1915 4.42462C51.6687 5.74088 51.9041 7.13437 51.8861 8.53634C51.8861 12.1037 50.7417 14.6146 48.4528 16.0689L52.9333 28.5605H47.1104L43.8525 17.2608H41.1763V28.5605H35.8223V0ZM41.1763 4.62327V12.6375H43.5329C45.6273 12.6375 46.6745 11.2634 46.6745 8.51525C46.6745 7.56715 46.5199 6.78958 46.2108 6.18252C45.9017 5.57546 45.5416 5.16528 45.1306 4.95199C44.7185 4.73636 44.1147 4.62795 43.3193 4.62678L41.1763 4.62327Z" fill="#FF3B00"/>
<path d="M61.3771 0H67.6186L75.68 28.5605H69.3379L67.9312 22.6593H59.9843L58.595 28.5605H52.9023L61.3771 0ZM66.7607 17.7635L63.9074 6.06298L61.1722 17.7635H66.7607Z" fill="#FF3B00"/>
<path d="M96.298 5.64988H82.4675V12.0521H93.3979V17.3873H82.4675V28.5605H75.2812V0H96.2946L96.298 5.64988Z" fill="#FF3B00"/>
<path d="M126 0V18.915C126 22.4999 124.634 25.0782 121.903 26.6497C119.172 28.2213 115.614 29.0065 111.231 29.0053C106.612 29.0053 102.901 28.2517 100.099 26.7446C97.2976 25.2375 95.8973 22.7823 95.8984 19.3791V0H107.338V18.3489C107.338 19.7166 107.708 20.7127 108.447 21.3373C109.187 21.962 110.37 22.2761 111.997 22.2796C113.354 22.2796 114.465 22.0528 115.33 21.5993C116.194 21.1457 116.713 20.633 116.884 20.0611C117.053 19.4904 117.137 18.3771 117.137 16.7211V0H126Z" fill="#FF3B00"/>
</g>
<defs>
<clipPath id="clip0">
<rect width="126" height="29" fill="white"/>
</clipPath>
</defs>
</svg>
