<svg width="30" height="30" viewBox="0 0 30 30" fill="none" xmlns="http://www.w3.org/2000/svg">
<g clip-path="url(#clip0)">
<path d="M29.9707 8.82008C29.9004 7.22607 29.6426 6.1302 29.2734 5.18061C28.8924 4.17264 28.3064 3.27022 27.5386 2.52002C26.7884 1.75816 25.88 1.16615 24.8837 0.79117C23.9286 0.421912 22.8385 0.16414 21.2445 0.0938599C19.6385 0.0176273 19.1287 0 15.0557 0C10.9826 0 10.4728 0.0176273 8.87281 0.0879078C7.2788 0.158188 6.18293 0.416188 5.23357 0.785218C4.22538 1.16615 3.32295 1.7522 2.57276 2.52002C1.81089 3.27022 1.21911 4.1786 0.843904 5.17488C0.474646 6.1302 0.216875 7.22011 0.146594 8.81413C0.0703617 10.42 0.0527344 10.9299 0.0527344 15.0029C0.0527344 19.076 0.0703617 19.5858 0.140642 21.1858C0.210923 22.7798 0.468923 23.8757 0.838181 24.8253C1.21911 25.8332 1.81089 26.7356 2.57276 27.4858C3.32295 28.2477 4.23133 28.8397 5.22762 29.2147C6.18293 29.584 7.27285 29.8417 8.86709 29.912C10.4668 29.9825 10.9769 29.9999 15.0499 29.9999C19.123 29.9999 19.6328 29.9825 21.2328 29.912C22.8268 29.8417 23.9227 29.584 24.872 29.2147C26.8882 28.4352 28.4822 26.8412 29.2617 24.8253C29.6307 23.8699 29.8887 22.7798 29.959 21.1858C30.0293 19.5858 30.0469 19.076 30.0469 15.0029C30.0469 10.9299 30.041 10.42 29.9707 8.82008ZM27.2691 21.0686C27.2046 22.5337 26.9585 23.3249 26.7533 23.8523C26.2492 25.1593 25.212 26.1965 23.905 26.7006C23.3776 26.9057 22.5807 27.1518 21.1213 27.2162C19.539 27.2867 19.0644 27.3041 15.0616 27.3041C11.0588 27.3041 10.5783 27.2867 9.0017 27.2162C7.53657 27.1518 6.7454 26.9057 6.21795 26.7006C5.56757 26.4602 4.97557 26.0793 4.49505 25.5812C3.99691 25.0947 3.61597 24.5086 3.3756 23.8583C3.17048 23.3308 2.92439 22.5337 2.86006 21.0745C2.78955 19.4922 2.77215 19.0174 2.77215 15.0146C2.77215 11.0118 2.78955 10.5313 2.86006 8.95492C2.92439 7.48979 3.17048 6.69862 3.3756 6.17117C3.61597 5.52056 3.99691 4.92879 4.501 4.44804C4.98724 3.9499 5.5733 3.56896 6.2239 3.32882C6.75135 3.1237 7.54847 2.87761 9.00765 2.81305C10.59 2.74277 11.0648 2.72514 15.0673 2.72514C19.0761 2.72514 19.5506 2.74277 21.1272 2.81305C22.5924 2.87761 23.3835 3.1237 23.911 3.32882C24.5614 3.56896 25.1534 3.9499 25.6339 4.44804C26.132 4.93451 26.513 5.52056 26.7533 6.17117C26.9585 6.69862 27.2046 7.49551 27.2691 8.95492C27.3394 10.5373 27.357 11.0118 27.357 15.0146C27.357 19.0174 27.3394 19.4862 27.2691 21.0686Z" fill="black"/>
<path d="M15.0542 7.29688C10.7996 7.29688 7.34766 10.7486 7.34766 15.0035C7.34766 19.2583 10.7996 22.71 15.0542 22.71C19.3091 22.71 22.7608 19.2583 22.7608 15.0035C22.7608 10.7486 19.3091 7.29688 15.0542 7.29688ZM15.0542 20.0025C12.2941 20.0025 10.0552 17.7639 10.0552 15.0035C10.0552 12.2431 12.2941 10.0044 15.0542 10.0044C17.8146 10.0044 20.0533 12.2431 20.0533 15.0035C20.0533 17.7639 17.8146 20.0025 15.0542 20.0025Z" fill="black"/>
<path d="M24.8661 6.99249C24.8661 7.98604 24.0605 8.79163 23.0667 8.79163C22.0732 8.79163 21.2676 7.98604 21.2676 6.99249C21.2676 5.99872 22.0732 5.19336 23.0667 5.19336C24.0605 5.19336 24.8661 5.99872 24.8661 6.99249Z" fill="black"/>
</g>
<defs>
<clipPath id="clip0">
<rect width="30" height="30" fill="white"/>
</clipPath>
</defs>
</svg>
